<svg xmlns="http://www.w3.org/2000/svg" width="31.116" height="23.089" viewBox="0 0 31.116 23.089"><defs><style>.a{fill:#797676;}</style></defs><g transform="translate(0 5.168)"><path class="a" d="M30.5-5.168H.615A.615.615,0,0,0,0-4.553V12.178a.615.615,0,0,0,.615.615H11.643v3.882H10.075a.615.615,0,0,0,0,1.231h3.006a.615.615,0,1,0,0-1.231h-.208V12.8h4.946v3.88a.615.615,0,0,0,.021,1.23h2.9a.615.615,0,0,0,0-1.231H19.049V12.793H30.5a.615.615,0,0,0,.615-.615V-4.553a.615.615,0,0,0-.615-.615Zm-.615,16.731H1.23v-15.5H29.885Zm0,0"/><path class="a" d="M486.088,77.531H489.1a.615.615,0,0,0,.615-.615V67.01a.615.615,0,0,0-.615-.615h-3.015a.615.615,0,0,0-.615.615v9.906A.615.615,0,0,0,486.088,77.531Zm.615-9.906h1.784V76.3H486.7Zm0,0" transform="translate(-461.87 -68.083)"/><path class="a" d="M380.662,112.576h3.015a.615.615,0,0,0,.615-.615v-8.115a.615.615,0,0,0-.615-.615h-3.015a.615.615,0,0,0-.615.615v8.115A.615.615,0,0,0,380.662,112.576Zm.615-8.115h1.784v6.884h-1.784Zm0,0" transform="translate(-361.57 -103.128)"/><path class="a" d="M275.24,182.145h3.015a.615.615,0,0,0,.615-.615v-4.56a.616.616,0,0,0-.615-.615H275.24a.615.615,0,0,0-.615.615v4.56A.615.615,0,0,0,275.24,182.145Zm.615-4.56h1.784v3.329h-1.784Zm0,0" transform="translate(-261.273 -172.698)"/><path class="a" d="M169.814,129.448h3.015a.615.615,0,0,0,.615-.615V121.58a.615.615,0,0,0-.615-.615h-3.015a.615.615,0,0,0-.615.615v7.253A.615.615,0,0,0,169.814,129.448Zm.615-7.253h1.784v6.022h-1.784Zm0,0" transform="translate(-160.973 -120)"/><path class="a" d="M64.389,188.905H67.4a.615.615,0,0,0,.615-.615v-4.214a.615.615,0,0,0-.615-.615H64.389a.615.615,0,0,0-.615.615v4.214A.615.615,0,0,0,64.389,188.905ZM65,184.691h1.784v2.984H65Zm0,0" transform="translate(-60.673 -179.458)"/><path class="a" d="M64.389,52.372A.616.616,0,0,0,65,51.757v-2.53h3.015a.615.615,0,0,0,0-1.231h-3.63a.615.615,0,0,0-.615.615v3.146a.616.616,0,0,0,.615.615Zm0,0" transform="translate(-60.673 -50.579)"/><path class="a" d="M187.88,48.971l.016.012a.615.615,0,1,0,.746-.979l-.016-.012a.615.615,0,1,0-.746.979Zm0,0" transform="translate(-178.515 -50.456)"/><path class="a" d="M305.088,444.313l-.016-.012a.615.615,0,0,0-.745.98l.016.012a.615.615,0,0,0,.745-.98Zm0,0" transform="translate(-289.3 -427.497)"/></g></svg>