<svg xmlns="http://www.w3.org/2000/svg" width="30" height="28.125" viewBox="0 0 30 28.125"><defs><style>.a{fill:#fffcfc;}</style></defs><g transform="translate(0 -16)"><path class="a" d="M30,38.852V16H0V38.852H11.426v3.516H9.668v1.758H20.332V42.368H18.574V38.852ZM1.758,37.094V34.75h17.7V32.992H8.333l4.7-4.7,2.637,2.637,7.3-7.3v2.156h1.758V20.512H19.453V22.27h2.39l-6.169,6.169L13.037,25.8l-7.19,7.19H1.758V17.758H28.243V37.094Zm15.059,5.274H13.184V38.852h3.633Z"/><path class="a" d="M362,306h1.758v1.758H362Z" transform="translate(-340.789 -273.008)"/><path class="a" d="M422,306h1.758v1.758H422Z" transform="translate(-397.273 -273.008)"/></g></svg>