<svg xmlns="http://www.w3.org/2000/svg" xmlns:xlink="http://www.w3.org/1999/xlink" width="552" height="295" viewBox="0 0 552 295"><defs><style>.a{fill:#fff;}.b{clip-path:url(#a);}.c{fill:#0c8575;opacity:0.26;}.d{filter:url(#b);}</style><clipPath id="a"><rect class="a" width="552" height="295" rx="12" transform="translate(0.042)"/></clipPath><filter id="b" x="-9" y="-6" width="570" height="313" filterUnits="userSpaceOnUse"><feOffset dy="3" input="SourceAlpha"/><feGaussianBlur stdDeviation="3" result="c"/><feFlood flood-opacity="0.161"/><feComposite operator="in" in2="c"/><feComposite in="SourceGraphic"/></filter></defs><g class="b" transform="translate(-0.042)"><g class="d" transform="matrix(1, 0, 0, 1, 0.04, 0)"><path class="a" d="M12,0H540a12,12,0,0,1,12,12V283a12,12,0,0,1-12,12H12A12,12,0,0,1,0,283V12A12,12,0,0,1,12,0Z" transform="translate(0)"/></g><path class="c" d="M273.583,33.991H247C247,136.772,330.313,220.1,433.094,220.1V193.514A159.513,159.513,0,0,1,273.583,33.991Z" transform="translate(118.946 16.212)"/><path class="c" d="M415.924-29.413V-56a132.927,132.927,0,0,0,0,265.853V183.267a106.34,106.34,0,0,1,0-212.68Z" transform="translate(136.115 -26.709)"/><path class="c" d="M398.755-20a79.756,79.756,0,1,0,0,159.511V59.754l79.756-.012A79.739,79.739,0,0,0,398.755-20Z" transform="translate(153.285 -9.54)"/></g></svg>