<svg xmlns="http://www.w3.org/2000/svg" width="26.589" height="19.73" viewBox="0 0 26.589 19.73"><defs><style>.a,.b{fill:#0bb783;}.b{opacity:0.5;}</style></defs><g transform="translate(0 5.168)"><path class="a" d="M26.063-5.168H.526A.526.526,0,0,0,0-4.642v14.3a.526.526,0,0,0,.526.526H9.949V13.5H8.609a.526.526,0,0,0,0,1.052h2.569a.526.526,0,1,0,0-1.052H11V10.183h4.226V13.5a.526.526,0,0,0,.018,1.051h2.479a.526.526,0,0,0,0-1.052H16.278V10.18h9.785a.526.526,0,0,0,.526-.526v-14.3a.526.526,0,0,0-.526-.526Zm-.526,14.3H1.051V-4.116H25.537Zm0,0"/><path class="b" d="M486,75.91h2.576a.526.526,0,0,0,.526-.526V66.92a.526.526,0,0,0-.526-.526H486a.526.526,0,0,0-.526.526v8.465A.526.526,0,0,0,486,75.91Zm.526-8.465h1.525v7.413h-1.525Zm0,0" transform="translate(-465.304 -68.589)"/><path class="b" d="M380.572,111.216h2.576a.526.526,0,0,0,.526-.526v-6.934a.526.526,0,0,0-.526-.526h-2.576a.526.526,0,0,0-.526.526v6.934A.526.526,0,0,0,380.572,111.216Zm.526-6.934h1.525v5.883H381.1Zm0,0" transform="translate(-364.258 -103.895)"/><path class="b" d="M275.15,181.3h2.576a.526.526,0,0,0,.526-.526v-3.9a.526.526,0,0,0-.526-.526H275.15a.526.526,0,0,0-.526.526v3.9A.526.526,0,0,0,275.15,181.3Zm.526-3.9H277.2v2.845h-1.525Zm0,0" transform="translate(-263.216 -173.982)"/><path class="b" d="M169.725,128.213H172.3a.526.526,0,0,0,.526-.526v-6.2a.526.526,0,0,0-.526-.526h-2.576a.526.526,0,0,0-.526.526v6.2A.526.526,0,0,0,169.725,128.213Zm.526-6.2h1.525v5.146H170.25Zm0,0" transform="translate(-162.17 -120.892)"/><path class="b" d="M64.3,188.113h2.576a.526.526,0,0,0,.526-.526v-3.6a.526.526,0,0,0-.526-.526H64.3a.526.526,0,0,0-.526.526v3.6A.526.526,0,0,0,64.3,188.113Zm.526-3.6H66.35v2.549H64.825Zm0,0" transform="translate(-61.124 -180.792)"/><path class="a" d="M64.3,51.736a.526.526,0,0,0,.526-.526V49.048H67.4A.526.526,0,1,0,67.4,48H64.3a.526.526,0,0,0-.526.526V51.21A.526.526,0,0,0,64.3,51.736Zm0,0" transform="translate(-61.124 -50.955)"/><path class="a" d="M187.844,48.81l.014.011a.526.526,0,0,0,.637-.836l-.014-.011a.526.526,0,1,0-.637.836Zm0,0" transform="translate(-179.842 -50.831)"/><path class="a" d="M304.941,444.293l-.014-.011a.526.526,0,0,0-.636.837l.014.011a.526.526,0,1,0,.636-.837Zm0,0" transform="translate(-291.451 -430.676)"/></g></svg>