<svg xmlns="http://www.w3.org/2000/svg" xmlns:xlink="http://www.w3.org/1999/xlink" width="448" height="236" viewBox="0 0 448 236"><defs><style>.a{fill:#fff;}.b{clip-path:url(#a);}.c{fill:#1c77c3;}.d{fill:none;stroke:#fff;stroke-width:40px;opacity:0.19;}</style><clipPath id="a"><rect class="a" width="448" height="236" rx="12" transform="translate(0.28 0.32)"/></clipPath></defs><g class="b" transform="translate(-0.28 -0.32)"><path class="c" d="M12,0H436a12,12,0,0,1,12,12V224a12,12,0,0,1-12,12H12A12,12,0,0,1,0,224V12A12,12,0,0,1,12,0Z" transform="translate(0.28 0.32)"/><circle class="d" cx="96" cy="96" r="96" transform="translate(303.28 -39.68)"/><path class="a" d="M844.181,231.8q3.226,0,4.557,2a7.966,7.966,0,0,1,1.357,4.634v6.426H832.2v-3.123h1.382v-14.8h3.43v9.216a26.028,26.028,0,0,1,2.074-2.33,7.836,7.836,0,0,1,2.2-1.459A7.005,7.005,0,0,1,844.181,231.8Zm-.794,3.123a5.109,5.109,0,0,0-3.558,1.715,14.419,14.419,0,0,0-2.816,3.917v1.178h9.651V239.1a4.891,4.891,0,0,0-.87-2.944A2.748,2.748,0,0,0,843.387,234.928Zm16.219,6.81v3.123h-5.939v-17.92h3.43v14.8Zm11.073,0v3.123H859.594v-3.123h3.814v-9.677h3.43v9.677Zm-7.168,5.171h3.149v3.328h-3.149Zm18.243-5.171v3.123H870.669v-3.123h3.814v-9.677h3.43v9.677Zm-7.168-15.386h3.149v3.328h-3.149Zm18.243,15.386v3.123H881.744v-3.123h3.814v-9.677h3.43v9.677Zm-8.858-15.258h2.637v3.2h-2.637Zm3.891,0H890.5v3.2h-2.637Zm24.644,5.555q.282,1.638.486,3.328a20.517,20.517,0,0,1,.23,2.381v7.117h-5.274a4.852,4.852,0,0,1-1.638-.282,4.544,4.544,0,0,1-1.254-.666,3.626,3.626,0,0,1-2.56.947h-9.7v-3.123h3.917v-8.4h3.43v8.4h1.178a1.674,1.674,0,0,0,1.485-.768,3.531,3.531,0,0,0,.538-2.022v-5.606h3.43v5.606a9.653,9.653,0,0,1-.256,2.33,2.686,2.686,0,0,0,.589.333,2.4,2.4,0,0,0,.768.128h1.92V238.23q0-1.638-.051-2.765-.052-1.152-.23-3.3Zm16.829-5.094v17.92H915.793v-3.123h3.226V230.4h3.43v11.341H925.9v-14.8Zm-5.786.768-5.606,1.1-.282-1.2,1.178-.307a2.616,2.616,0,0,1-1-2.074,2.525,2.525,0,0,1,.742-1.818,2.637,2.637,0,0,1,1.946-.768,3.783,3.783,0,0,1,2,.614l-.333,1.536a1.439,1.439,0,0,0-.435-.23,1.524,1.524,0,0,0-.64-.128,1.318,1.318,0,0,0-.973.384,1.3,1.3,0,0,0-.358.922,1.348,1.348,0,0,0,.614,1.152l2.79-.742Zm9.592-.768h3.43v17.92h-3.43Z" transform="translate(-533.704 -105.341)"/></g></svg>