<svg xmlns="http://www.w3.org/2000/svg" xmlns:xlink="http://www.w3.org/1999/xlink" width="46.186" height="46.186" viewBox="0 0 46.186 46.186"><defs><style>.a{fill:url(#a);}.b{fill:#fff;}</style><linearGradient id="a" x1="0.5" y1="1" x2="0.5" gradientUnits="objectBoundingBox"><stop offset="0" stop-color="#25d9f8"/><stop offset="1" stop-color="#009ae4"/></linearGradient></defs><path class="a" d="M23.093,46.186A23.093,23.093,0,1,1,46.186,23.093,23.068,23.068,0,0,1,23.093,46.186Z"/><path class="b" d="M217.765,229.943h-5.412A1.353,1.353,0,0,1,211,228.59V212.353A1.353,1.353,0,0,1,212.353,211h5.412a1.353,1.353,0,0,1,1.353,1.353V228.59A1.353,1.353,0,0,1,217.765,229.943Z" transform="translate(-191.967 -191.967)"/><path class="b" d="M215.059,99.119a4.059,4.059,0,1,1,4.059-4.059A4.064,4.064,0,0,1,215.059,99.119Z" transform="translate(-191.967 -82.791)"/></svg>