<svg xmlns="http://www.w3.org/2000/svg" width="15.478" height="15.478" viewBox="0 0 15.478 15.478"><path d="M9.059,8.388a.625.625,0,0,0-.6.645v2.58a.626.626,0,0,1-.6.645H6.039V2.583a1.3,1.3,0,0,0-.822-1.226l-.179-.064H7.851a.626.626,0,0,1,.6.645V3.873a.605.605,0,1,0,1.208,0V1.939A1.879,1.879,0,0,0,7.851,0H1.359a.448.448,0,0,0-.065.014C1.265.015,1.237,0,1.208,0A1.252,1.252,0,0,0,0,1.294V12.9a1.3,1.3,0,0,0,.822,1.226l3.634,1.294a1.177,1.177,0,0,0,.374.06,1.252,1.252,0,0,0,1.208-1.29v-.645H7.851a1.879,1.879,0,0,0,1.812-1.935V9.032a.625.625,0,0,0-.6-.645Zm0,0" transform="translate(0 -0.004)"/><path d="M283.8,109.258l-2.416-2.416a.6.6,0,0,0-1.031.427v1.812h-2.416a.6.6,0,1,0,0,1.208h2.416V112.1a.6.6,0,0,0,1.031.427l2.416-2.416a.6.6,0,0,0,0-.854Zm0,0" transform="translate(-268.497 -103.295)"/></svg>