<svg xmlns="http://www.w3.org/2000/svg" width="22.405" height="22.405" viewBox="0 0 22.405 22.405"><defs><style>.a{fill:#0bb783;}.b{opacity:0.5;}</style></defs><g transform="translate(-7.032 -7.032)"><g transform="translate(7.032 7.032)"><path class="a" d="M19.747,15.515A9.091,9.091,0,0,0,6.89,2.658,8.914,8.914,0,0,0,5.523,13.63a.382.382,0,0,1-.053.456L.832,18.724a2.118,2.118,0,0,0-.324,3.033l.141.141a2.118,2.118,0,0,0,3.033-.324L8.31,16.945a.388.388,0,0,1,.465-.063A8.914,8.914,0,0,0,19.747,15.515ZM8.569,13.837a6.717,6.717,0,1,1,9.5,0A6.725,6.725,0,0,1,8.569,13.837Z" transform="translate(-0.001 0)"/><g class="b" transform="translate(8.21 3.638)"><path class="a" d="M114.69,55.318a.939.939,0,0,1-.864-1.3,5.913,5.913,0,0,1,7.742-3.138.938.938,0,1,1-.731,1.728,4.035,4.035,0,0,0-5.282,2.141A.939.939,0,0,1,114.69,55.318Z" transform="translate(-113.752 -50.409)"/></g></g></g></svg>