<svg width="11" height="11" xmlns="http://www.w3.org/2000/svg" xmlns:xlink="http://www.w3.org/1999/xlink" xmlns:svgjs="http://svgjs.com/svgjs" fill="#fff"><svg xmlns="http://www.w3.org/2000/svg" width="11" height="11" viewBox="0.817 0.817 9.286 9.286"><path paint-order="stroke fill markers" fill-rule="evenodd" d="M9.001 7.248a3.772 3.772 0 0 0 0-5.329 3.772 3.772 0 0 0-5.328 0 3.695 3.695 0 0 0-.567 4.548s.062.104-.022.188L1.162 8.578c-.383.382-.474.917-.135 1.257l.059.058c.339.34.874.248 1.257-.134L4.26 7.84c.088-.088.193-.025.193-.025A3.694 3.694 0 0 0 9 7.248zm-4.633-.696a2.787 2.787 0 0 1 0-3.937 2.787 2.787 0 0 1 3.938 0 2.787 2.787 0 0 1 0 3.937 2.788 2.788 0 0 1-3.938 0z"/></svg></svg>