<svg xmlns="http://www.w3.org/2000/svg" width="12.872" height="15.428" viewBox="0 0 12.872 15.428"><path d="M90.748,7.432a3.6,3.6,0,0,0,2.627-1.089,3.6,3.6,0,0,0,1.089-2.627,3.6,3.6,0,0,0-1.089-2.627,3.715,3.715,0,0,0-5.255,0,3.6,3.6,0,0,0-1.089,2.627A3.6,3.6,0,0,0,88.12,6.343,3.6,3.6,0,0,0,90.748,7.432Zm0,0" transform="translate(-84.409 0)"/><path d="M12.841,251.727a9.179,9.179,0,0,0-.125-.975,7.681,7.681,0,0,0-.24-.98,4.841,4.841,0,0,0-.4-.914,3.45,3.45,0,0,0-.608-.792,2.679,2.679,0,0,0-.873-.548,3.017,3.017,0,0,0-1.114-.2,1.131,1.131,0,0,0-.6.256c-.181.118-.393.255-.629.406a3.605,3.605,0,0,1-.814.359,3.162,3.162,0,0,1-1.991,0,3.6,3.6,0,0,1-.813-.359c-.234-.15-.446-.286-.63-.406a1.129,1.129,0,0,0-.6-.256,3.013,3.013,0,0,0-1.114.2,2.677,2.677,0,0,0-.873.548,3.45,3.45,0,0,0-.607.792,4.851,4.851,0,0,0-.4.914,7.7,7.7,0,0,0-.24.98,9.146,9.146,0,0,0-.125.975c-.02.3-.031.6-.031.911a2.562,2.562,0,0,0,.761,1.938,2.739,2.739,0,0,0,1.961.715H10.15a2.738,2.738,0,0,0,1.961-.715,2.561,2.561,0,0,0,.761-1.938c0-.311-.011-.617-.031-.911Zm0,0" transform="translate(0 -239.864)"/></svg>