<svg xmlns="http://www.w3.org/2000/svg" width="25.641" height="24.039" viewBox="0 0 25.641 24.039"><defs><style>.a,.b{fill:#0bb783;}.b{opacity:0.5;}</style></defs><g transform="translate(0 -16)"><path class="a" d="M25.641,35.531V16H0V35.531H9.766v3h-1.5v1.5h9.115v-1.5h-1.5v-3ZM1.5,34.029v-2H16.627v-1.5h-9.5L11.143,26.5,13.4,28.756l6.235-6.235v1.842h1.5V19.856H16.627v1.5h2.043L13.4,26.631l-2.254-2.254L5,30.523H1.5V17.5H24.139V34.029Zm12.871,4.507h-3.1v-3h3.1Z"/><path class="b" d="M362,306h1.5v1.5H362Z" transform="translate(-343.871 -275.477)"/><path class="b" d="M422,306h1.5v1.5H422Z" transform="translate(-400.866 -275.477)"/></g></svg>